HIERARCHY
ROOT Hips
{
  OFFSET 13.6774 106.653 -34.4427
  CHANNELS 6 Xposition Yposition Zposition Zrotation Xrotation Yrotation
  JOINT ToSpine
  {
    OFFSET -2.69724 7.43032 -0.144315
    CHANNELS 3 Zrotation Xrotation Yrotation
    JOINT Spine
    {
      OFFSET -0.0310711 10.7595 1.96963
      CHANNELS 3 Zrotation Xrotation Yrotation
      JOINT Spine1
      {
        OFFSET 19.9056 3.91189 0.764692
        CHANNELS 3 Zrotation Xrotation Yrotation
        JOINT Neck
        {
          OFFSET 25.9749 7.03908 -0.130764
          CHANNELS 3 Zrotation Xrotation Yrotation
          JOINT Head
          {
            OFFSET 9.52751 0.295786 -0.907742
            CHANNELS 3 Zrotation Xrotation Yrotation
            End Site
            {
              OFFSET 16.4037 0.713936 2.7358
            }
          }
        }
        JOINT LeftShoulder
        {
          OFFSET 17.7449 4.33886 11.7777
          CHANNELS 3 Zrotation Xrotation Yrotation
          JOINT LeftArm
          {
            OFFSET 0.911315 1.27913 9.80584
            CHANNELS 3 Zrotation Xrotation Yrotation
            JOINT LeftForeArm
            {
              OFFSET 28.6126 1.18197 -3.53199
              CHANNELS 3 Zrotation Xrotation Yrotation
              JOINT LeftHand
              {
                OFFSET 27.5088 0.0218783 0.327423
                CHANNELS 3 Zrotation Xrotation Yrotation
                End Site
                {
                  OFFSET 18.6038 -0.000155887 0.382096
                }
              }
            }
          }
        }
        JOINT RightShoulder
        {
          OFFSET 17.1009 2.89543 -12.2328
          CHANNELS 3 Zrotation Xrotation Yrotation
          JOINT RightArm
          {
            OFFSET 1.4228 0.178766 -10.211
            CHANNELS 3 Zrotation Xrotation Yrotation
            JOINT RightForeArm
            {
              OFFSET 28.733 1.87905 2.64907
              CHANNELS 3 Zrotation Xrotation Yrotation
              JOINT RightHand
              {
                OFFSET 27.4588 0.290562 -0.101845
                CHANNELS 3 Zrotation Xrotation Yrotation
                End Site
                {
                  OFFSET 17.8396 -0.255518 -0.000602873
                }
              }
            }
          }
        }
      }
    }
  }
  JOINT LeftUpLeg
  {
    OFFSET -5.61296 -2.22332 -10.2353
    CHANNELS 3 Zrotation Xrotation Yrotation
    JOINT LeftLeg
    {
      OFFSET 2.56703 -44.7417 -7.93097
      CHANNELS 3 Zrotation Xrotation Yrotation
      JOINT LeftFoot
      {
        OFFSET 3.16933 -46.5642 -3.96578
        CHANNELS 3 Zrotation Xrotation Yrotation
        JOINT LeftToeBase
        {
          OFFSET 0.346054 -6.02161 12.8035
          CHANNELS 3 Zrotation Xrotation Yrotation
          End Site
          {
            OFFSET 0.134235 -1.35082 5.13018
          }
        }
      }
    }
  }
  JOINT RightUpLeg
  {
    OFFSET -5.7928 -1.72406 10.6446
    CHANNELS 3 Zrotation Xrotation Yrotation
    JOINT RightLeg
    {
      OFFSET -2.57161 -44.7178 -7.85259
      CHANNELS 3 Zrotation Xrotation Yrotation
      JOINT RightFoot
      {
        OFFSET -3.10148 -46.5936 -4.03391
        CHANNELS 3 Zrotation Xrotation Yrotation
        JOINT RightToeBase
        {
          OFFSET -0.0828122 -6.13587 12.8035
          CHANNELS 3 Zrotation Xrotation Yrotation
          End Site
          {
            OFFSET -0.131328 -1.35082 5.13018
          }
        }
      }
    }
  }
}
MOTION
Frames: 14
Frame Time: 0.03333333333333333
0.0000 93.1000 0.0000 29.5084 51.2429 45.4799 -71.0042 0.2343 88.5816 150.8165 67.5393 -59.2656 3.3632 27.0656 2.0199 -165.0952 24.0992 171.7508 -149.0867 61.9788 172.0369 1.0707 -4.1385 -19.3842 -95.4865 35.7848 -56.4656 -13.5509 51.7231 3.4522 15.1973 -0.7303 -1.3543 0.1300 1.3947 13.8387 -89.7179 -49.6649 124.5862 10.1922 -3.2441 73.6470 11.4039 -0.5753 3.6426 1.6974 -2.9057 82.8181 -162.9406 73.1044 154.2123 6.5323 2.0236 -1.3427 -8.7362 -37.2526 15.2144 -54.8827 7.0847 85.8499 6.2895 57.0787 16.9321 -10.7376 -14.1070 1.0205 7.2424 -15.2279 -16.3525 
0.0000 93.1000 0.0000 29.4493 49.3417 39.6243 -71.1875 0.2165 88.4017 150.9210 69.2060 -62.9597 3.0499 28.4170 -2.2324 -163.2375 25.9330 169.8197 -151.8889 63.5904 175.0972 0.9165 -4.8760 -19.9596 -94.0802 36.6969 -59.3009 -15.1866 51.5557 5.9747 14.2752 -0.9980 -1.7847 0.7167 0.5874 12.7269 -87.4046 -47.9583 123.8357 13.7072 -2.2391 80.3540 10.0200 0.2646 5.2466 4.1474 -1.3796 90.6801 -87.8545 85.0887 77.5210 5.2516 0.9337 -1.2295 -9.3769 -39.2975 15.3188 -63.6142 3.8752 93.2221 3.4383 45.6123 11.2792 -8.3033 -12.4343 0.6080 -7.0067 5.3350 -3.8873 
0.0000 93.1000 0.0000 26.2908 49.8496 41.7893 -71.0484 -0.0403 88.2630 142.7885 70.5530 -55.1141 6.1658 28.0681 -6.9894 -160.1733 25.8994 170.2981 -151.4721 63.5200 174.2653 1.3021 -3.9824 -22.9789 -92.8644 36.0287 -68.2868 -15.2465 48.0837 5.4526 12.8862 -0.8322 -3.2261 0.4737 -0.0184 15.5069 -79.7855 -45.6371 124.3947 14.5238 -3.3486 78.5868 8.7995 -0.2769 5.6821 -0.1068 -0.8310 96.6523 -14.0865 75.7472 1.1583 3.5786 2.9762 -1.1046 -8.5016 -39.9568 16.0934 -66.7902 3.3276 92.6896 1.7552 43.1632 4.7922 -2.2759 0.0715 -0.2708 -39.0024 41.4171 38.3956 
0.0000 93.1000 0.0000 25.1755 52.4959 43.2294 -70.9780 -0.3049 88.2877 135.7843 69.7712 -49.4772 10.0352 26.3407 -8.3452 -158.2974 25.2914 168.5660 -150.4451 63.0134 172.0077 1.1786 -3.3689 -27.3331 -88.7015 36.6446 -83.1133 -10.0142 38.8243 -1.9656 13.3089 -1.3683 -3.2575 0.3498 0.3712 19.8854 -72.7512 -44.7025 123.8016 13.3971 -5.3092 68.7787 6.6279 0.8485 6.2994 -7.9380 0.4316 99.8868 -11.4220 71.1428 -2.9450 2.7167 2.6638 -0.9074 -7.9516 -36.6927 17.4174 -64.0956 6.6550 91.6303 5.2213 63.8295 1.5494 -4.0884 -0.2057 -0.1830 -43.5288 50.7085 39.4369 
0.0000 93.1000 0.0000 26.3899 56.9505 41.5746 -70.8847 0.4675 88.3166 133.0014 68.4585 -51.2478 12.4825 24.0435 -7.4187 -156.2822 23.8138 167.6291 -150.7663 62.6448 174.6118 1.8773 -2.4219 -29.4559 -72.9320 33.3754 -106.1124 -1.9010 22.6341 -12.9544 15.9020 -0.9996 -3.4002 0.5373 1.0483 23.8337 -66.5765 -44.9682 119.7769 13.8915 -9.0052 55.5455 5.3473 1.0119 5.0296 -19.9379 -2.0563 101.0483 -10.4980 67.8889 -6.6988 4.3246 -0.6995 -1.3399 -8.2422 -29.9775 13.6301 -57.6866 6.8794 88.8614 68.6076 85.4426 -67.0577 -4.2455 0.3583 -0.4593 -22.5729 47.0880 6.6910 
0.0000 93.1000 0.0000 23.4035 59.9483 40.8551 -70.8475 0.6373 88.4958 129.5950 66.7688 -52.3997 11.1712 22.0278 -7.5188 -155.4951 24.0902 168.7843 -152.8632 63.0322 177.3014 1.9221 -1.6572 -30.9176 -61.1735 24.7831 -125.8753 3.2334 6.7318 -21.9140 17.0572 -0.7223 -2.9031 0.6074 -0.1795 28.6978 -61.6543 -46.7402 113.4313 13.1658 -12.4428 42.4822 6.1393 0.8638 2.7537 -31.1163 -10.0643 99.9327 -7.2858 62.3837 -10.0414 6.6261 6.4221 -1.2083 -10.6953 -45.9865 9.6678 -45.8772 3.0335 88.5066 166.6159 68.9103 -165.6152 -5.2382 -1.4490 -0.1299 -7.6001 39.9846 -8.1024 
0.0000 93.1000 0.0000 11.5249 62.4359 51.9313 -70.8337 -0.7908 88.1370 122.8688 66.0192 -48.6144 7.6150 20.2818 -4.8444 -156.5748 25.0268 168.6759 -156.2946 63.8077 179.8339 1.8235 -2.0796 -29.0943 -71.2995 28.3213 -138.1250 8.1370 8.5407 -33.2441 17.2312 -1.0783 -5.2563 -1.2142 0.6292 30.2237 -63.6813 -52.4156 97.6971 16.0573 -15.5376 40.9063 6.6034 -1.6972 -0.6057 -36.6924 -17.0125 91.8463 -5.9279 59.1731 -6.4872 8.4427 1.8524 -1.7333 -10.2975 -48.2273 10.7314 -24.6854 -0.2396 88.3245 170.2944 53.2303 -172.0356 -6.2535 -2.0613 0.3175 1.4335 20.8778 -20.6472 
0.0000 93.1000 0.0000 7.5478 61.9629 57.3066 -70.9809 0.4744 88.5044 119.7047 65.7569 -45.6684 4.1222 19.1015 -2.2282 -158.3862 24.4600 170.4361 -158.1988 63.9714 -178.7611 2.0425 -2.4243 -25.6731 -76.9136 34.5475 -145.0584 15.1559 11.1925 -51.2467 17.9799 -1.4144 -5.5833 0.2628 0.9476 29.4443 -67.6562 -59.0256 81.6704 16.0662 -15.1713 42.1226 5.3443 0.1553 2.2668 -47.8167 -16.7630 84.8459 -5.6872 52.3209 -8.6847 8.1225 -0.7706 -2.2606 -10.0935 -46.6440 12.7437 -8.0827 0.2818 92.6643 170.6347 53.2817 -172.0747 -8.6293 -2.9457 0.5923 7.7555 4.4448 -21.7136 
0.0000 93.1000 0.0000 9.6619 59.1935 60.5339 -70.8848 -0.1435 88.2432 113.7172 65.1000 -36.3271 3.1954 17.8478 0.4100 -159.2475 23.1651 172.7600 -156.4401 61.5910 176.9019 1.7606 -2.2310 -23.4105 -79.7479 36.4905 -144.1516 21.7473 8.8704 -66.9326 20.2839 -1.6866 -6.6747 -0.8434 1.8577 25.0381 -63.7915 -63.6470 77.6476 11.0478 -10.7097 41.7755 5.5361 -0.6752 1.4879 -57.9508 -8.8064 83.0199 -2.9097 44.0656 -15.5001 4.8812 -3.9000 -1.5131 -7.4530 -36.2694 16.6645 2.9165 0.9285 91.3962 168.7629 66.9081 -169.3249 -9.0890 -4.8308 1.1916 7.9285 -6.9307 -19.8457 
0.0000 93.1000 0.0000 17.0858 58.3778 57.3408 -70.8221 -0.0018 88.2955 117.7418 63.6720 -37.2780 3.4867 17.2141 2.3542 -160.3521 21.2159 171.7521 -152.8019 59.2551 173.7912 1.2543 -1.5501 -22.5744 -79.1075 38.0546 -137.1654 24.4966 7.4424 -75.1728 21.2622 -1.7407 -6.2137 -0.8934 2.8078 25.1289 -60.8250 -64.2072 75.6816 6.7951 -5.4686 40.4306 4.8089 -0.0369 2.1081 -68.8746 1.2592 92.3485 3.9932 37.0577 -25.8747 -0.5672 -0.3063 -0.2391 -5.0932 -11.3092 10.9395 2.7673 2.8089 87.5985 82.4119 85.5592 -83.1574 -8.6038 -6.1422 1.3871 9.2915 -13.5394 -18.9369 
0.0000 93.1000 0.0000 24.5953 57.3373 51.5714 -70.8552 0.2009 88.4571 118.4706 63.3789 -36.5425 6.0298 17.1536 2.4552 -161.2703 19.1793 171.2365 -150.9636 56.9511 171.0818 1.3977 -2.1275 -22.1281 -78.0188 38.7743 -127.2164 20.9217 8.3660 -68.0748 19.8278 -1.5116 -5.5867 -0.7234 3.1412 27.9139 -62.8518 -62.1082 76.4486 2.1862 0.2000 38.6193 4.1966 -0.0130 2.0471 -73.1596 -0.0437 78.6554 -4.8648 44.6144 -10.2304 0.8894 6.5094 -0.6935 -5.7168 -12.3968 17.3373 -1.7749 2.6069 84.3800 5.1814 65.7982 -3.0619 -8.2110 -1.2698 0.6822 9.0826 -19.0934 -15.3462 
0.0000 93.1000 0.0000 31.7500 57.2037 46.5204 -71.3549 -0.1459 88.4812 120.7300 63.7772 -37.1049 10.6405 17.1146 0.9635 -161.3081 19.1220 171.4474 -151.8569 55.9895 171.0065 1.2907 -2.0576 -24.2316 -74.4285 38.3474 -124.2347 14.7882 11.0752 -47.8840 16.3490 -1.7201 -4.9896 -0.8744 1.9143 29.7098 -67.8641 -57.9200 76.3395 -0.0413 3.3618 40.8201 2.9010 0.3133 2.3764 -69.2153 -3.9215 76.8929 -11.1197 70.2662 -1.2640 -1.0020 8.8160 0.2348 -5.9253 -20.4028 17.0815 -7.0475 0.3334 80.1597 2.6351 56.3092 0.9598 -5.2199 -1.9508 -0.3162 5.0040 -2.6185 -12.3652 
0.0000 93.1000 0.0000 42.9650 56.4160 39.2536 -71.0437 0.1767 88.4518 124.6727 63.9209 -37.5875 14.2781 18.0075 0.0117 -160.4211 18.2852 173.5123 -149.5896 54.9524 170.8266 1.9895 -1.1568 -27.3435 -63.3489 34.6267 -126.1678 6.5778 12.2959 -25.5382 15.9677 -1.5107 -4.2510 -0.1820 0.8300 30.1870 -71.8966 -54.5333 80.4557 0.1400 2.2253 43.5139 2.6109 0.5283 3.0492 -64.1361 -1.7527 79.8009 -143.4821 82.2075 131.8298 -0.4238 7.4493 -0.3191 -5.7269 -15.0732 13.0003 -14.2643 3.3144 73.6003 3.1733 59.0620 3.6709 -5.1173 -2.4030 -0.6549 5.0440 4.4446 -18.0012 
0.0000 93.1000 0.0000 50.9422 53.2673 36.1855 -71.0958 0.0205 88.4256 129.8988 63.5837 -40.1406 13.9575 19.3277 0.2363 -161.3913 16.9896 172.8645 -148.7299 53.1763 169.2351 2.0502 0.0289 -29.7978 -81.8901 41.4106 -105.1020 0.4362 38.4782 -13.0624 15.5043 -1.2280 -2.3997 0.4173 -0.5973 30.8459 -75.2831 -51.4017 87.4392 2.6383 -0.5984 44.9999 3.9161 0.2336 2.4971 -53.0247 2.8956 80.8493 -168.8257 61.6216 157.4463 1.7713 7.1460 -0.5754 -6.0137 -18.2947 15.9334 -21.3856 9.1495 70.1961 5.2185 65.3759 3.9115 -6.2889 -6.5768 -0.0352 7.7297 -1.0668 -22.4654 
